PathFileType	4	(X/Y/Z)	Kaydara																																																																																																																									
DataRate	CameraRate	NumFrames	NumMarkers	Units	OrigDataRate	OrigDataStartFrame	OrigNumFrames																																																																																																																					
30	30	7	41	mm	30	62	115																																																																																																																					
Frame#	Time	PAIB_LFHD			PAIB_RFHD			PAIB_LBHD			PAIB_RBHD			PAIB_LFTShould			PAIB_RFTShould			PAIB_LRRShould			PAIB_RRRShould			PAIB_T10			PAIB_STRN			PAIB_TRUN			PAIB_LSHO			PAIB_LUPA			PAIB_LELB			PAIB_LFRM			PAIB_LWRA			PAIB_LWRB			PAIB_LFIN			PAIB_RSHO			PAIB_RUPA			PAIB_RELB			PAIB_RFRM			PAIB_RWRA			PAIB_RWRB			PAIB_RFIN			PAIB_LFWT			PAIB_RFWT			PAIB_LBWT			PAIB_RBWT			PAIB_LTHI			PAIB_LKNE			PAIB_LSHN			PAIB_LANK			PAIB_LHEE			PAIB_LTOE			PAIB_RTHI			PAIB_RKNE			PAIB_RSHN			PAIB_RANK			PAIB_RHEE			PAIB_RTOE		
		X1	Y1	Z1	X2	Y2	Z2	X3	Y3	Z3	X4	Y4	Z4	X5	Y5	Z5	X6	Y6	Z6	X7	Y7	Z7	X8	Y8	Z8	X9	Y9	Z9	X10	Y10	Z10	X11	Y11	Z11	X12	Y12	Z12	X13	Y13	Z13	X14	Y14	Z14	X15	Y15	Z15	X16	Y16	Z16	X17	Y17	Z17	X18	Y18	Z18	X19	Y19	Z19	X20	Y20	Z20	X21	Y21	Z21	X22	Y22	Z22	X23	Y23	Z23	X24	Y24	Z24	X25	Y25	Z25	X26	Y26	Z26	X27	Y27	Z27	X28	Y28	Z28	X29	Y29	Z29	X30	Y30	Z30	X31	Y31	Z31	X32	Y32	Z32	X33	Y33	Z33	X34	Y34	Z34	X35	Y35	Z35	X36	Y36	Z36	X37	Y37	Z37	X38	Y38	Z38	X39	Y39	Z39	X40	Y40	Z40	X41	Y41	Z41
																																																																																																																												
44	2.033	280.0629	1601.91864	-1592.90039	94.97925	1596.0202	-1614.10233	303.52064	1581.26633	-1718.91434	100.35783	1584.71909	-1728.74557	245.91043	1337.36572	-1653.40683	129.04072	1340.39063	-1693.92319	298.58719	1435.88608	-1762.1106	153.74229	1444.67529	-1803.94592	256.36032	1313.52707	-1905.35461	187.88269	1265.97412	-1656.8985	186.94027	1162.08038	-1665.01099	394.15783	1361.28479	-1685.2298	493.23582	1155.8876	-1705.5719	534.60678	1084.71748	-1737.80212	513.88355	978.31146	-1668.48495	399.70654	894.59648	-1604.03351	468.60447	860.79201	-1630.12665	434.54201	843.04352	-1564.71085	29.74928	1374.00131	-1798.27682	-13.4282	1277.00325	-1946.86676	-42.96344	1193.30734	-2023.52341	-76.22436	1055.79308	-2048.20847	-55.37014	922.41722	-1975.73318	-102.91833	929.52126	-2043.94669	-119.43175	879.105	-1991.39755	328.22758	903.99796	-1759.00558	94.4869	925.32372	-1780.74493	284.01484	977.20184	-1981.64719	140.45483	982.07199	-1986.80588	317.0281	726.81198	-2018.24509	342.23515	460.93761	-1984.46091	307.94847	277.71027	-2039.12003	309.33886	129.90199	-2183.12088	255.21721	133.60403	-2233.62976	286.89001	75.42827	-2023.90015	46.74598	675.72075	-1878.40118	14.19814	503.8007	-1679.73694	97.36589	326.39065	-1720.52719	102.92738	177.32288	-1884.42352	168.40391	196.28185	-1908.6673	97.18376	99.83283	-1714.52438
45	2.067	276.45344	1584.15955	-1550.00519	91.44313	1578.26859	-1572.94495	300.84171	1564.40186	-1675.97382	97.70308	1567.62619	-1687.30209	241.67799	1318.6998	-1614.49478	125.8044	1323.46222	-1659.00055	297.6244	1422.09442	-1718.28812	153.99261	1431.48697	-1763.51517	259.93143	1305.07034	-1867.46521	183.90882	1247.14523	-1622.59094	184.0992	1143.6483	-1635.02106	388.42346	1344.16748	-1639.04083	490.50251	1142.22298	-1652.48703	536.2986	1072.03407	-1682.04956	507.38735	969.45076	-1607.33521	386.58951	891.99669	-1546.6806	457.30862	855.62492	-1565.81085	416.61182	842.14485	-1502.41348	30.31743	1360.09048	-1764.0329	-8.87999	1276.08841	-1919.46854	-38.45989	1197.91428	-2002.25586	-70.79899	1061.0453	-2034.71512	-49.29832	924.48006	-1969.15405	-96.83103	934.38248	-2037.3909	-112.91327	881.2352	-1987.01416	329.77894	892.06673	-1732.39578	96.43873	915.69603	-1755.12085	285.58271	967.6564	-1954.61319	142.28226	972.05322	-1960.75348	317.98096	725.67711	-1998.48862	343.94062	459.35974	-1981.20056	310.2335	277.27634	-2039.44214	309.71451	131.50499	-2185.69885	254.9437	135.95391	-2235.10132	288.48572	75.00067	-2026.81641	42.43936	669.65897	-1842.8595	15.70515	511.00788	-1628.41568	96.44963	326.74236	-1634.37988	104.04185	148.14321	-1766.00601	170.82747	161.05881	-1790.67734	90.98588	104.48695	-1584.33136
46	2.1	270.75092	1565.49637	-1504.73587	86.2057	1558.66364	-1528.66379	295.99497	1547.25479	-1630.88531	92.86922	1549.46686	-1643.4166	235.32558	1298.78021	-1572.38159	121.39297	1304.06662	-1620.72113	294.99004	1406.95358	-1671.5152	152.77391	1416.84647	-1720.49789	262.37284	1294.59702	-1825.71518	178.16668	1226.72363	-1585.41718	179.1988	1124.01962	-1601.98914	380.8316	1326.89758	-1590.12497	490.34946	1130.20035	-1598.47702	538.58788	1061.19545	-1623.69156	501.45332	962.53899	-1545.45258	375.10082	892.73727	-1488.19229	444.71703	852.8904	-1501.06476	401.0421	844.03236	-1439.85931	29.02456	1345.7756	-1724.53094	-6.41151	1274.53331	-1887.19406	-37.15064	1202.44751	-1975.78934	-68.80647	1066.26076	-2014.59808	-45.50119	927.36641	-1954.50592	-95.08907	940.02556	-2023.03284	-108.84109	884.05037	-1973.45825	330.28706	878.28232	-1703.50525	97.32866	905.32471	-1725.61798	285.72311	957.50534	-1924.46503	142.478	961.31096	-1931.55182	319.36543	723.72795	-1976.11374	346.81057	458.21667	-1977.0639	312.20127	276.84015	-2039.30847	310.64148	134.50252	-2187.74124	255.20218	140.0551	-2235.88867	290.60104	74.86438	-2029.78241	45.86869	662.86057	-1803.50204	20.24416	510.88947	-1584.03671	91.84009	326.52855	-1554.96811	95.81151	126.10041	-1648.64731	163.97457	133.29275	-1672.99637	79.005	110.23728	-1459.92294
47	2.133	263.01933	1548.64578	-1457.86987	78.78098	1540.99503	-1483.26614	289.30998	1530.83359	-1583.81241	86.23301	1532.0929	-1597.93686	227.56258	1279.39423	-1528.2283	115.00289	1286.23566	-1579.44427	289.50638	1392.48398	-1621.63803	148.69377	1402.14615	-1674.50699	262.38924	1283.57788	-1779.91959	171.11757	1207.94525	-1544.77875	173.20732	1105.85579	-1564.51889	371.51897	1311.57822	-1537.76215	488.52016	1120.9198	-1541.67557	540.20138	1053.4951	-1563.3403	496.34872	958.68034	-1483.58109	366.07986	893.69835	-1431.23016	435.20721	851.91139	-1437.82425	388.04169	847.27943	-1379.10385	25.49461	1332.12097	-1683.7326	-6.82479	1272.5325	-1850.44586	-38.12045	1206.15059	-1943.53912	-69.76957	1070.78796	-1987.57523	-47.37166	930.08385	-1929.96094	-96.20493	944.51057	-1999.17511	-110.16533	887.30568	-1950.27664	330.38185	864.53156	-1671.10321	97.77051	896.44897	-1689.50333	284.37159	947.81113	-1889.98322	140.75533	952.05009	-1896.33484	318.10375	721.30074	-1950.31464	347.30007	457.18975	-1965.62103	314.67381	279.03093	-2033.49838	312.95189	141.2984	-2188.61771	256.69325	148.46896	-2235.57938	292.76945	74.94236	-2033.76297	55.11544	657.02393	-1763.21915	28.97694	505.63419	-1543.16833	92.11763	325.54928	-1491.40213	87.58904	115.19397	-1559.5813	156.24261	116.11462	-1585.43381	72.14615	126.2801	-1369.80942
48	2.167	253.57157	1535.14343	-1408.8475	69.80093	1527.30118	-1436.04645	281.20207	1517.285	-1534.49905	78.26269	1518.37921	-1550.7872	218.77319	1265.10284	-1480.51132	107.61907	1272.1479	-1534.60739	282.19801	1382.28989	-1569.81415	143.04151	1390.31693	-1626.11923	259.88844	1274.00238	-1730.31967	163.49707	1193.21159	-1499.78394	167.19099	1091.46713	-1520.96832	361.04832	1302.87384	-1482.22549	483.80661	1116.69243	-1485.38864	538.53176	1051.63185	-1505.9874	491.99932	957.93358	-1425.78049	361.21769	893.33565	-1377.46841	430.76225	851.52992	-1381.14899	381.54869	848.68141	-1323.77762	20.63421	1321.08383	-1638.30917	-10.20589	1269.69017	-1807.0015	-42.41622	1207.25845	-1902.24686	-75.38402	1072.75459	-1949.73099	-53.81449	931.05827	-1894.20593	-102.91492	946.98021	-1963.56247	-117.23538	889.02756	-1915.0441	333.18604	852.57378	-1634.96643	99.78322	888.63029	-1645.61707	281.04832	941.37886	-1849.11163	137.23328	946.74278	-1852.92343	313.5354	718.58627	-1917.02118	347.69531	456.6275	-1945.31891	317.72657	281.70305	-2022.74048	315.85938	154.35674	-2186.54739	258.33752	163.69213	-2232.00958	295.63856	74.79864	-2038.92914	55.32818	647.87407	-1723.45596	37.83291	497.2633	-1499.21097	102.50619	315.2759	-1454.68994	85.56504	104.33191	-1520.4097	151.99783	101.95389	-1552.57202	85.28227	124.24334	-1331.66138
49	2.2	244.23473	1528.9975	-1358.44452	60.58901	1521.40564	-1384.73694	271.44754	1510.84702	-1484.18243	68.56707	1512.10754	-1499.75494	209.71237	1257.73026	-1428.46268	99.64208	1263.24783	-1484.66736	273.18493	1377.92343	-1516.42151	134.40256	1383.03329	-1574.48868	254.59286	1269.2218	-1677.16263	155.63009	1184.76341	-1449.22592	160.89069	1083.41003	-1470.7431	349.5853	1300.16449	-1427.35992	477.77473	1117.57713	-1432.612	535.67513	1054.95911	-1455.23361	490.38662	958.10555	-1377.6152	360.46158	891.19766	-1330.99991	430.52139	850.15892	-1335.99396	381.89171	845.81024	-1278.29529	13.55853	1312.91534	-1588.36502	-17.90572	1265.07584	-1757.11884	-51.62951	1204.88487	-1853.13812	-85.88278	1070.61913	-1900.746	-64.58435	928.71475	-1846.1618	-115.11343	945.53543	-1915.22293	-128.30305	887.07443	-1865.79224	334.5031	844.61823	-1592.84348	102.55428	885.67955	-1597.40692	276.44108	939.80499	-1804.11758	132.35949	949.01428	-1805.0563	307.69596	715.40283	-1875.7576	347.12299	455.56492	-1909.96689	320.0959	286.64642	-2001.63055	319.56553	175.30586	-2176.409	261.5683	189.29169	-2220.28198	297.7536	74.52545	-2044.16412	52.77204	645.59525	-1678.13141	45.13414	483.41011	-1463.1189	111.1913	302.78805	-1432.58057	94.55825	102.28968	-1519.04892	156.62954	102.87817	-1551.79031	90.87954	94.53516	-1332.03461
50	2.233	235.22947	1531.72745	-1305.29358	51.42848	1524.40262	-1330.02838	261.47503	1513.16483	-1431.13327	58.52865	1514.54803	-1445.0769	202.53195	1258.8533	-1374.10873	93.40672	1263.63945	-1431.32477	264.76521	1382.29218	-1460.10986	125.44077	1385.44754	-1519.02466	248.81647	1275.83275	-1622.75085	149.72847	1185.08156	-1396.31516	156.09111	1084.06212	-1418.70804	342.27028	1303.97736	-1371.0498	473.76083	1122.46056	-1388.62961	531.83907	1062.34718	-1416.08582	491.35601	960.02533	-1343.22495	364.7728	887.11281	-1297.44934	435.77	848.47168	-1306.88614	389.41273	840.12154	-1247.65625	6.28226	1311.72943	-1533.48129	-29.10494	1260.61501	-1699.77386	-64.23025	1198.76724	-1794.20532	-98.48925	1064.28978	-1840.19363	-76.24453	922.92252	-1785.57343	-127.01234	938.76457	-1853.37173	-140.67571	881.43143	-1804.21005	331.35796	848.05176	-1544.0567	100.7612	894.03526	-1548.84201	276.81818	946.43555	-1754.21585	133.11554	960.1281	-1755.60699	305.21372	715.26787	-1825.56534	346.96056	454.58031	-1854.19617	320.72266	295.51538	-1964.01733	323.92399	206.89598	-2151.02188	266.08082	228.04218	-2192.58759	297.42167	74.9432	-2053.1073	50.92151	654.50615	-1640.0264	47.44861	486.95515	-1430.02808	113.71116	299.8863	-1412.84027	92.76764	103.14241	-1510.90195	157.06888	105.69621	-1544.91943	86.04208	88.16394	-1320.65063
